<?xml version="1.0" encoding="UTF-8" standalone="no"?>
<!-- Created with Inkscape (http://www.inkscape.org/) -->

<svg
   version="1.1"
   id="svg2"
   width="755.90668"
   height="207.88"
   viewBox="0 0 755.90668 207.88"
   sodipodi:docname="VSS_Logo.svg"
   xmlns:inkscape="http://www.inkscape.org/namespaces/inkscape"
   xmlns:sodipodi="http://sodipodi.sourceforge.net/DTD/sodipodi-0.dtd"
   xmlns="http://www.w3.org/2000/svg"
   xmlns:svg="http://www.w3.org/2000/svg">
  <defs
     id="defs6" />
  <sodipodi:namedview
     id="namedview4"
     pagecolor="#ffffff"
     bordercolor="#666666"
     borderopacity="1.0"
     inkscape:showpageshadow="2"
     inkscape:pageopacity="0.0"
     inkscape:pagecheckerboard="0"
     inkscape:deskcolor="#d1d1d1"
     showgrid="false" />
  <g
     id="g10"
     inkscape:groupmode="layer"
     inkscape:label="Page 1"
     transform="matrix(1.3333333,0,0,-1.3333333,0,207.88)">
    <g
       id="g12"
       transform="scale(0.1)"
       style="fill:#ffffff">
      <path
         d="M 30.2891,612.195 V 50.2305 H 155.406 v 39.539 H 78.8945 V 572.695 h 76.5115 v 39.5 H 30.2891"
         style="fill:#ffffff;fill-opacity:1;fill-rule:nonzero;stroke:none"
         id="path14" />
      <path
         d="M 391.695,171.77 H 315.18 L 183.316,603.066 h 75.965 l 70.485,-254.515 c 10.961,-40.11 16.988,-61.379 24.242,-94.813 h 1.262 c 7.293,32.821 12.101,54.703 23.652,95.403 l 69.894,253.925 h 74.7 L 391.695,171.77"
         style="fill:#ffffff;fill-opacity:1;fill-rule:nonzero;stroke:none"
         id="path16" />
      <path
         d="m 723.375,162.031 c -101.426,0 -148.852,54.649 -150.027,130.617 l 69.89,15.204 c 1.77,-65.622 32.121,-86.911 83.809,-86.911 44.937,0 76.551,21.899 76.551,61.399 0,30.379 -18.293,52.242 -58.973,70.441 l -71.664,32.207 c -59.523,26.711 -89.246,57.102 -89.246,116.043 0,75.918 64.328,111.797 142.152,111.797 96.535,0 137.848,-57.148 139.071,-113.019 l -69.258,-14.59 c -3.039,48.613 -26.731,68.043 -72.305,68.043 -38.906,0 -67.992,-16.403 -67.992,-48.563 0,-32.25 16.984,-48.058 55.219,-64.418 l 68.714,-30.39 c 66.778,-29.75 95.95,-64.403 95.95,-122.719 0,-78.352 -59.524,-125.141 -151.891,-125.141"
         style="fill:#ffffff;fill-opacity:1;fill-rule:nonzero;stroke:none"
         id="path18" />
      <path
         d="m 1099.41,162.031 c -101.469,0 -148.851,54.649 -150.117,130.617 l 69.897,15.204 c 1.85,-65.622 32.21,-86.911 83.89,-86.911 44.94,0 76.47,21.899 76.47,61.399 0,30.379 -18.21,52.242 -58.93,70.441 l -71.63,32.207 c -59.521,26.711 -89.326,57.102 -89.326,116.043 0,75.918 64.416,111.797 142.146,111.797 96.59,0 137.94,-57.148 139.12,-113.019 l -69.26,-14.59 c -2.99,48.613 -26.73,68.043 -72.26,68.043 -38.91,0 -68.04,-16.403 -68.04,-48.563 0,-32.25 16.99,-48.058 55.27,-64.418 l 68.67,-30.39 c 66.82,-29.75 95.99,-64.403 95.99,-122.719 0,-78.352 -59.56,-125.141 -151.89,-125.141"
         style="fill:#ffffff;fill-opacity:1;fill-rule:nonzero;stroke:none"
         id="path20" />
      <path
         d="m 1412.84,28.3516 h 42.5 V 682.047 h -42.5 V 28.3516"
         style="fill:#ffffff;fill-opacity:1;fill-rule:nonzero;stroke:none"
         id="path22" />
      <path
         d="m 1672.78,202.141 c -23.1,23.691 -35.24,55.898 -35.24,103.89 v 297.035 h 72.34 V 309.07 c 0,-29.8 4.8,-50.441 15.17,-63.8 11.47,-14.571 29.76,-23.098 55.31,-23.098 25.46,0 43.68,8.527 55.23,23.098 10.96,13.359 15.26,34 15.26,63.8 v 293.996 h 72.84 V 306.031 c 0,-47.992 -12.73,-80.199 -35.24,-103.89 -25.46,-26.121 -63.82,-40.11 -108.09,-40.11 -44.43,0 -82.03,13.989 -107.58,40.11"
         style="fill:#ffffff;fill-opacity:1;fill-rule:nonzero;stroke:none"
         id="path24" />
      <path
         d="M 2129.58,603.09 2231.1,375.301 c 12.14,-27.379 23.01,-55.313 33.38,-86.91 h 1.18 c -0.59,34.019 -1.85,60.73 -1.85,97.211 V 603.09 h 72.34 V 171.789 h -87.43 l -102.7,227.16 c -12.81,27.973 -22.51,54.039 -34.06,86.883 h -1.18 c 1.18,-34.043 1.86,-65 1.86,-97.762 V 171.789 h -71.75 V 603.09 h 88.69"
         style="fill:#ffffff;fill-opacity:1;fill-rule:nonzero;stroke:none"
         id="path26" />
      <path
         d="m 2455.2,171.77 v 431.296 h 254.54 V 542.32 H 2527.45 V 422.66 h 148.31 V 364.34 H 2527.45 V 231.859 h 182.29 V 171.77 H 2455.2"
         style="fill:#ffffff;fill-opacity:1;fill-rule:nonzero;stroke:none"
         id="path28" />
      <path
         d="m 2924.74,162.031 c -101.43,0 -148.82,54.649 -150.08,130.617 l 69.89,15.204 c 1.77,-65.622 32.21,-86.911 83.89,-86.911 44.94,0 76.48,21.899 76.48,61.399 0,30.379 -18.22,52.242 -58.94,70.441 l -71.66,32.207 c -59.53,26.711 -89.29,57.102 -89.29,116.043 0,75.918 64.41,111.797 142.15,111.797 96.54,0 137.93,-57.148 139.12,-113.019 l -69.31,-14.59 c -3.03,48.613 -26.64,68.043 -72.25,68.043 -38.87,0 -68.05,-16.403 -68.05,-48.563 0,-32.25 17.03,-48.058 55.31,-64.418 l 68.63,-30.39 c 66.86,-29.75 95.95,-64.403 95.95,-122.719 0,-78.352 -59.52,-125.141 -151.84,-125.141"
         style="fill:#ffffff;fill-opacity:1;fill-rule:nonzero;stroke:none"
         id="path30" />
      <path
         d="m 3238.12,28.3516 h 42.58 V 682.047 h -42.58 V 28.3516"
         style="fill:#ffffff;fill-opacity:1;fill-rule:nonzero;stroke:none"
         id="path32" />
      <path
         d="m 3498.14,202.141 c -23.1,23.691 -35.24,55.898 -35.24,103.89 v 297.035 h 72.26 V 309.07 c 0,-29.8 4.89,-50.441 15.26,-63.8 11.55,-14.571 29.76,-23.098 55.31,-23.098 25.46,0 43.75,8.527 55.22,23.098 10.88,13.359 15.18,34 15.18,63.8 v 293.996 h 72.93 V 306.031 c 0,-47.992 -12.82,-80.199 -35.24,-103.89 -25.55,-26.121 -63.83,-40.11 -108.09,-40.11 -44.35,0 -82.04,13.989 -107.59,40.11"
         style="fill:#ffffff;fill-opacity:1;fill-rule:nonzero;stroke:none"
         id="path34" />
      <path
         d="m 3993.82,162.031 c -101.43,0 -148.82,54.649 -149.99,130.617 l 69.81,15.204 c 1.85,-65.622 32.2,-86.911 83.88,-86.911 44.94,0 76.48,21.899 76.48,61.399 0,30.379 -18.22,52.242 -58.85,70.441 l -71.75,32.207 c -59.53,26.711 -89.29,57.102 -89.29,116.043 0,75.918 64.33,111.797 142.15,111.797 96.62,0 137.93,-57.148 139.12,-113.019 l -69.22,-14.59 c -3.04,48.613 -26.81,68.043 -72.34,68.043 -38.87,0 -68.05,-16.403 -68.05,-48.563 0,-32.25 17.04,-48.058 55.32,-64.418 l 68.63,-30.39 c 66.85,-29.75 95.94,-64.403 95.94,-122.719 0,-78.352 -59.52,-125.141 -151.84,-125.141"
         style="fill:#ffffff;fill-opacity:1;fill-rule:nonzero;stroke:none"
         id="path36" />
      <path
         d="m 4275.67,202.141 c -23.01,23.691 -35.24,55.898 -35.24,103.89 v 297.035 h 72.34 V 309.07 c 0,-29.8 4.81,-50.441 15.09,-63.8 11.64,-14.571 29.85,-23.098 55.31,-23.098 25.55,0 43.84,8.527 55.31,23.098 10.96,13.359 15.17,34 15.17,63.8 v 293.996 h 72.94 V 306.031 c 0,-47.992 -12.73,-80.199 -35.25,-103.89 -25.54,-26.121 -63.74,-40.11 -108.17,-40.11 -44.26,0 -81.95,13.989 -107.5,40.11"
         style="fill:#ffffff;fill-opacity:1;fill-rule:nonzero;stroke:none"
         id="path38" />
      <path
         d="m 4596.48,50.2305 v 39.5 h 76.47 V 572.695 h -76.47 v 39.5 h 125.04 V 50.2305 h -125.04"
         style="fill:#ffffff;fill-opacity:1;fill-rule:nonzero;stroke:none"
         id="path40" />
      <path
         d="m 5229.84,755.336 h 24.45 c 0,215.504 -175.37,390.804 -390.79,390.804 v -24.57 c -201.76,-0.05 -365.83,-164.289 -365.92,-366.191 h 32.46 c 0,184.031 149.66,333.731 333.54,333.731 184.06,-0.04 333.8,-149.743 333.8,-333.731 0,-89.102 -34.66,-172.84 -97.64,-235.91 -63.06,-63.071 -146.96,-97.778 -236.16,-97.778 v -32.5 c 97.89,0 189.88,38.11 259.1,107.348 69.13,69.117 107.16,161.059 107.16,258.797 M 4863.58,612.195 v -32.461 c 96.79,0.039 175.63,78.875 175.63,175.645 h 23.94 c -0.08,109.812 -89.62,199.187 -199.65,199.144 v -24.175 c -46.54,0.043 -90.39,-18.086 -123.35,-51.075 -33.05,-33.07 -51.26,-77.058 -51.26,-123.894 h 32.38 c 0,38.172 14.92,73.984 41.9,100.965 26.81,26.808 62.47,41.582 100.33,41.582 v -0.227 c 78.66,0 142.74,-63.847 142.74,-142.32 h 0.5 c 0,-78.918 -64.24,-143.145 -143.16,-143.184 m 548.37,691.375 c -146.53,146.48 -341.21,227.14 -548.45,227.14 v -56.8 c 191.98,0 372.49,-74.72 508.23,-210.53 135.74,-135.72 210.45,-316.107 210.45,-508.001 H 5639 c 0,207.07 -80.6,401.731 -227.05,548.191 m -548.45,35.14 v -24.74 c -149.06,-0.04 -289.36,-58.09 -394.84,-163.61 -105.55,-105.54 -163.73,-245.79 -163.73,-394.981 h 32.46 c 0,140.504 54.8,272.641 154.2,372.031 99.41,99.4 231.53,154.1 371.99,154.1 140.64,0 272.75,-54.74 372.24,-154.15 99.32,-99.38 154.04,-231.516 154.04,-371.981 0,-290.231 -236.07,-526.348 -526.28,-526.348 v -32.449 c 308.08,0 558.66,250.68 558.74,558.754 h 24.62 c 0.09,155.789 -60.62,302.264 -170.81,412.474 -110.2,110.2 -256.74,170.9 -412.63,170.9"
         style="fill:#ffffff;fill-opacity:1;fill-rule:nonzero;stroke:none"
         id="path42" />
    </g>
  </g>
</svg>
